<?xml version="1.0" encoding="UTF-8" standalone="no"?>
<!-- Created with Inkscape (http://www.inkscape.org/) -->

<svg
   xmlns:dc="http://purl.org/dc/elements/1.1/"
   xmlns:cc="http://creativecommons.org/ns#"
   xmlns:rdf="http://www.w3.org/1999/02/22-rdf-syntax-ns#"
   xmlns:svg="http://www.w3.org/2000/svg"
   xmlns="http://www.w3.org/2000/svg"
   xmlns:sodipodi="http://sodipodi.sourceforge.net/DTD/sodipodi-0.dtd"
   xmlns:inkscape="http://www.inkscape.org/namespaces/inkscape"
   id="svg8"
   version="1.1"
   viewBox="0 0 210 297"
   height="297mm"
   width="210mm"
   inkscape:version="0.92.3 (2405546, 2018-03-11)"
   sodipodi:docname="pad1.svg">
  <defs
     id="defs2" />
  <sodipodi:namedview
     inkscape:window-maximized="1"
     inkscape:window-y="-9"
     inkscape:window-x="-9"
     inkscape:window-height="1001"
     inkscape:window-width="1920"
     showgrid="true"
     inkscape:current-layer="layer1"
     inkscape:document-units="mm"
     inkscape:cy="744.59236"
     inkscape:cx="281.54462"
     inkscape:zoom="1.4"
     inkscape:pageshadow="2"
     inkscape:pageopacity="0.0"
     borderopacity="1.0"
     bordercolor="#666666"
     pagecolor="#ffffff"
     id="base"
     objecttolerance="10000"
     guidetolerance="10000"
     inkscape:snap-intersection-paths="true"
     showguides="false">
    <inkscape:grid
       type="xygrid"
       id="grid10" />
  </sodipodi:namedview>
  <metadata
     id="metadata5">
    <rdf:RDF>
      <cc:Work
         rdf:about="">
        <dc:format>image/svg+xml</dc:format>
        <dc:type
           rdf:resource="http://purl.org/dc/dcmitype/StillImage" />
        <dc:title></dc:title>
      </cc:Work>
    </rdf:RDF>
  </metadata>
  <g
     inkscape:label="Layer 1"
     inkscape:groupmode="layer"
     id="layer1">
    <g
       id="g173"
       transform="translate(10.790247,-69.23808)">
      <path
         style="opacity:0.5;fill:#000000;fill-opacity:1;stroke:none;stroke-width:0.26458332;stroke-linejoin:miter;stroke-miterlimit:1;stroke-dasharray:none;stroke-opacity:0.99004977"
         d="M 153.64339,162.07806 A 66.145836,26.458332 0 0 1 87.497559,188.5364 66.145836,26.458332 0 0 1 21.351723,162.07806 66.145836,26.458332 0 0 1 87.497559,135.61973 66.145836,26.458332 0 0 1 153.64339,162.07806 Z"
         id="path12" />
      <g
         transform="translate(3.3333333e-6,60.85417)"
         id="g64">
        <g
           id="g59" />
        <g
           id="g125">
          <path
             sodipodi:nodetypes="cccc"
             inkscape:connector-curvature="0"
             style="fill:#ffff00;stroke:#000000;stroke-width:0.26458332px;stroke-linecap:butt;stroke-linejoin:miter;stroke-opacity:1"
             d="M 40.733444,82.576712 68.58475,93.717235 m 65.67648,26.270595 -28.26987,-11.30795"
             id="path80" />
        </g>
      </g>
      <path
         sodipodi:nodetypes="cccc"
         inkscape:connector-curvature="0"
         id="path22"
         d="m 134.08858,143.35206 -27.99418,11.19767 m -37.498379,14.99935 c -9.339115,3.73565 -18.67823,7.47129 -28.017346,11.20694"
         style="fill:#ffff00;stroke:#000000;stroke-width:0.26458332px;stroke-linecap:butt;stroke-linejoin:miter;stroke-opacity:1" />
      <g
         id="g147">
        <path
           id="path160"
           d="m 87.312499,151.47912 c -14.612536,0 -26.458336,4.73832 -26.458333,10.58334 5e-6,5.84501 11.845803,10.58333 26.458333,10.58333"
           style="fill:none;stroke:#000000;stroke-width:0.26458332px;stroke-linecap:butt;stroke-linejoin:miter;stroke-opacity:1"
           inkscape:connector-curvature="0" />
        <path
           id="path158"
           d="m 87.312499,172.64579 c 14.612531,0 26.458331,-4.73832 26.458331,-10.58333 0,-5.84502 -11.8458,-10.58334 -26.458331,-10.58334"
           style="fill:none;stroke:#000000;stroke-width:0.26458332px;stroke-linecap:butt;stroke-linejoin:miter;stroke-opacity:1"
           inkscape:connector-curvature="0" />
        <path
           sodipodi:nodetypes="cccc"
           inkscape:connector-curvature="0"
           id="path28"
           d="m 87.3125,135.60416 v 15.875 m 0,21.16666 v 15.875"
           style="fill:#ffff00;stroke:#000000;stroke-width:0.26458332px;stroke-linecap:butt;stroke-linejoin:miter;stroke-opacity:1" />
      </g>
      <path
         sodipodi:nodetypes="cccccc"
         inkscape:connector-curvature="0"
         id="path30"
         d="m 153.45833,162.06249 h -39.64025 m -53.01116,0 H 21.166667 v 0 0"
         style="fill:#ffff00;stroke:#000000;stroke-width:0.26458332px;stroke-linecap:butt;stroke-linejoin:miter;stroke-opacity:1" />
    </g>
    <path
       style="opacity:0.5;fill:#ffeeaa;fill-opacity:1;stroke:none;stroke-width:0.99999988;stroke-linejoin:miter;stroke-miterlimit:1;stroke-dasharray:none;stroke-opacity:0.99004977"
       d="m 471.15622,347.46304 c -0.87711,-4.05686 -3.66405,-8.63526 -7.58944,-12.46798 -3.78659,-3.6972 -14.42567,-10.60453 -17.53618,-11.38522 -0.89586,-0.22485 -1.62884,-0.63275 -1.62884,-0.90644 0,-0.2737 23.46338,-9.88034 52.14085,-21.3481 l 52.14084,-20.85047 9.97577,4.54961 c 29.27374,13.35075 48.97227,29.16868 57.55923,46.2201 2.64834,5.2589 4.61189,12.04312 4.61189,15.93446 v 2.57547 h -74.5861 -74.58611 z"
       id="path184"
       inkscape:connector-curvature="0"
       transform="scale(0.26458333)" />
    <path
       style="opacity:0.5;fill:#e9c6af;fill-opacity:1;stroke:none;stroke-width:0.99999988;stroke-linejoin:miter;stroke-miterlimit:1;stroke-dasharray:none;stroke-opacity:0.99004977"
       d="m 433.22822,318.95394 c -13.31273,-4.43816 -37.05441,-8.45519 -49.97239,-8.45519 -2.79579,0 -6.57454,-0.2044 -8.39723,-0.45423 l -3.31398,-0.45423 v -29.30162 -29.30162 l 16.96429,0.48999 c 53.808,1.55419 101.27168,9.21382 143.25232,23.11788 7.77984,2.5767 13.88698,4.93319 13.57143,5.23664 -0.49377,0.47483 -92.00402,37.2698 -100.9309,40.58289 -3.21281,1.19239 -3.21794,1.19171 -11.17354,-1.46051 z"
       id="path188"
       inkscape:connector-curvature="0"
       transform="scale(0.26458333)" />
    <path
       style="opacity:0.5;fill:#e9c6af;fill-opacity:1;stroke:none;stroke-width:0.99999988;stroke-linejoin:miter;stroke-miterlimit:1;stroke-dasharray:none;stroke-opacity:0.99004977"
       d="m 247.43533,300.64865 c -27.99225,-11.23723 -50.65296,-20.65571 -50.35714,-20.92995 0.76684,-0.71091 18.03362,-6.61862 26.74741,-9.15145 38.66143,-11.23768 82.21102,-17.62838 130.04045,-19.08284 l 16.25,-0.49415 v 29.30002 29.30001 l -3.31398,0.45423 c -1.82269,0.24983 -5.82826,0.45423 -8.90126,0.45423 -12.65246,0 -37.43882,4.22923 -50.33564,8.58863 -3.45869,1.16911 -6.95145,2.09572 -7.76168,2.05913 -0.81023,-0.0366 -24.3759,-9.26063 -52.36816,-20.49786 z"
       id="path190"
       inkscape:connector-curvature="0"
       transform="scale(0.26458333)" />
    <path
       style="opacity:0.5;fill:#d45500;fill-opacity:1;stroke:none;stroke-width:0.99999988;stroke-linejoin:miter;stroke-miterlimit:1;stroke-dasharray:none;stroke-opacity:0.99004977"
       d="m 432.65546,318.66778 c -13.08897,-4.19041 -35.77413,-8.16253 -46.68314,-8.1741 -2.63166,-0.003 -6.95448,-0.20999 -9.60627,-0.46044 l -4.82143,-0.45535 v -29.21344 -29.21344 l 14.82143,0.44249 c 19.33786,0.57732 29.76389,1.13407 40.17857,2.14553 2.16072,0.20985 5.375,0.50998 7.14286,0.66695 7.40245,0.65732 21.62243,2.48634 28.57143,3.67497 0.98214,0.16799 2.78246,0.41073 4.00071,0.53941 1.21825,0.12867 2.50397,0.4114 2.85714,0.62828 0.35318,0.21687 2.24929,0.57822 4.21358,0.80298 3.67627,0.42067 3.96133,0.47387 10,1.86628 1.96428,0.45293 4.53571,0.98516 5.71428,1.18273 4.49304,0.7532 5,0.85472 5,1.00119 0,0.0829 0.64286,0.2525 1.42857,0.37694 0.78572,0.12444 4.64286,1.09123 8.57143,2.14842 3.92857,1.05718 7.625,1.99388 8.21429,2.08154 0.58928,0.0877 1.9665,0.52257 3.06049,0.96645 1.09399,0.44389 2.21899,0.75888 2.5,0.69998 0.28101,-0.0589 1.47522,0.29304 2.65379,0.78208 1.17857,0.48904 2.94643,1.00094 3.92857,1.13756 0.98215,0.13661 1.86608,0.31072 1.96429,0.38689 0.0982,0.0762 0.5,0.21886 0.89286,0.31707 0.39285,0.0982 0.875,0.25893 1.07143,0.35715 0.19642,0.0982 0.59821,0.24651 0.89285,0.32954 0.29465,0.083 1.07312,0.38905 1.72994,0.68002 0.65682,0.29097 1.78182,0.6404 2.5,0.77652 0.71818,0.13611 1.38613,0.31224 1.48435,0.39141 0.0982,0.0792 0.41964,0.21317 0.71428,0.29779 0.29465,0.0846 1.7868,0.71072 3.31591,1.39133 1.52912,0.68062 3.37733,1.28246 4.10714,1.33744 2.61927,0.1973 1.2209,1.61625 -3.50538,3.55698 -20.92886,8.59389 -95.89328,38.39764 -97.31052,38.68793 -1.01873,0.20866 -5.14353,-0.70924 -9.60345,-2.13708 z"
       id="path192"
       inkscape:connector-curvature="0"
       transform="scale(0.26458333)" />
    <path
       style="opacity:0.5;fill:#916f6f;fill-opacity:1;stroke:none;stroke-width:0.99999988;stroke-linejoin:miter;stroke-miterlimit:1;stroke-dasharray:none;stroke-opacity:0.99004977"
       d="m 121.9991,346.39161 c 0.57912,-4.60005 3.47258,-13.22758 5.78285,-17.24296 9.44373,-16.41371 29.89311,-32.20571 57.89401,-44.70854 l 8.12155,-3.6264 51.7307,20.70079 c 28.45188,11.38543 51.72949,20.87707 51.72802,21.09252 -0.001,0.21545 -1.46846,0.99457 -3.25997,1.73138 -5.44177,2.23808 -13.29212,7.80789 -17.63444,12.51164 -3.16675,3.43032 -4.3976,5.42762 -5.35714,8.69301 l -1.24577,4.23944 -74.09348,9.9e-4 -74.09348,9.9e-4 z"
       id="path194"
       inkscape:connector-curvature="0"
       transform="scale(0.26458333)" />
    <path
       style="opacity:0.5;fill:#ff0000;fill-opacity:1;stroke:none;stroke-width:0.99999988;stroke-linejoin:miter;stroke-miterlimit:1;stroke-dasharray:none;stroke-opacity:0.99004977"
       d="m 121.9991,346.39161 c 0.57905,-4.5995 3.51546,-13.39852 5.7805,-17.32143 9.37104,-16.23003 28.98909,-31.4394 57.15252,-44.30887 l 8.74464,-3.99592 51.79107,20.72495 c 28.48509,11.39872 51.79108,20.94674 51.79108,21.21782 0,0.27108 -0.73298,0.67683 -1.62884,0.90168 -2.96198,0.74341 -13.66918,7.61151 -17.19373,11.02888 -4.32249,4.19104 -6.63875,7.75083 -7.75232,11.91437 l -0.86426,3.23138 h -74.1239 -74.12391 z"
       id="path196"
       inkscape:connector-curvature="0"
       transform="scale(0.26458333)" />
    <path
       style="opacity:0.5;fill:#ff0000;fill-opacity:1;stroke:none;stroke-width:0.99999988;stroke-linejoin:miter;stroke-miterlimit:1;stroke-dasharray:none;stroke-opacity:0.99004977"
       d="m 122.33665,346.12379 c 3.52911,-22.32503 21.80239,-40.92813 57.49537,-58.53311 7.11164,-3.5077 13.24052,-6.37764 13.61975,-6.37764 0.65487,0 92.48294,36.74902 99.76655,39.92595 l 3.45941,1.50891 -3.91973,2.0619 c -13.01349,6.84549 -20.26564,14.45197 -23.0554,24.18181 -0.20268,0.70688 -15.63759,0.89286 -74.10031,0.89286 h -73.84432 z"
       id="path198"
       inkscape:connector-curvature="0"
       transform="scale(0.26458333)" />
    <path
       style="opacity:0.5;fill:#00ffff;fill-opacity:1;stroke:none;stroke-width:0.99999988;stroke-linejoin:miter;stroke-miterlimit:1;stroke-dasharray:none;stroke-opacity:0.99004977"
       d="m 187.25891,418.0936 c -21.4398,-9.47564 -37.07249,-19.64779 -48.59374,-31.61983 -9.58365,-9.95864 -15.3562,-20.74915 -16.66607,-31.15359 l -0.42715,-3.39285 74.09348,9.9e-4 74.09348,9.9e-4 1.25206,4.26079 c 0.99143,3.37385 2.16712,5.23899 5.64784,8.95989 4.26853,4.56308 13.41488,10.89468 18.27852,12.6534 1.27686,0.46172 2.31741,1.01599 2.31231,1.23171 -0.0113,0.47717 -102.91015,41.54554 -103.9193,41.47564 -0.39286,-0.0272 -3.125,-1.11492 -6.07143,-2.41714 z"
       id="path200"
       inkscape:connector-curvature="0"
       transform="scale(0.26458333)" />
    <path
       style="opacity:0.5;fill:#f4d7d7;fill-opacity:1;stroke:none;stroke-width:0.99999988;stroke-linejoin:miter;stroke-miterlimit:1;stroke-dasharray:none;stroke-opacity:0.99004977"
       d="m 122.25891,348.22296 c 0,-3.06027 2.3257,-11.01734 4.65852,-15.93849 7.8951,-16.65496 25.70268,-31.22995 56.47264,-46.22125 l 10.07377,-4.908 49.21897,19.7556 c 27.07043,10.86558 50.10288,20.10977 51.18324,20.54265 1.08036,0.43288 1.95486,0.95765 1.94335,1.16617 -0.0115,0.20851 -2.6633,1.82554 -5.89286,3.5934 -8.04833,4.40565 -16.88835,13.08982 -18.90472,18.57143 l -1.44509,3.92857 -7.76106,0.44484 c -4.26858,0.24466 -37.41283,0.48574 -73.65391,0.53572 l -65.89285,0.0909 z"
       id="path202"
       inkscape:connector-curvature="0"
       transform="scale(0.26458333)" />
    <path
       style="opacity:0.5;fill:#f4d7d7;fill-opacity:1;stroke:none;stroke-width:0.99999988;stroke-linejoin:miter;stroke-miterlimit:1;stroke-dasharray:none;stroke-opacity:0.99004977"
       d="m 298.68748,320.70211 c -0.58929,-0.21112 -15.21429,-5.99007 -32.5,-12.84211 -57.19422,-22.67173 -71.29596,-28.81175 -67.08334,-29.20865 0.36012,-0.0339 1.21727,-0.275 1.90477,-0.53572 l 2.5,-0.94804 c 0.6875,-0.26072 1.49107,-0.54197 1.78571,-0.625 0.29464,-0.083 0.69643,-0.23134 0.89286,-0.32955 0.19643,-0.0982 0.67857,-0.25893 1.07143,-0.35714 0.39285,-0.0982 0.79464,-0.24264 0.89285,-0.32094 0.0982,-0.0783 0.85797,-0.27049 1.68835,-0.42709 0.83037,-0.15659 2.43751,-0.66827 3.57142,-1.13706 1.13392,-0.46879 2.30273,-0.91946 2.59738,-1.00149 0.29464,-0.082 0.61607,-0.21575 0.71428,-0.29716 0.0982,-0.0814 1.07485,-0.29495 2.1703,-0.47454 1.09544,-0.17958 2.8633,-0.68555 3.92857,-1.12437 1.06526,-0.43883 2.73241,-0.929 3.70476,-1.08929 0.97235,-0.16028 2.17771,-0.63152 2.67857,-1.0472 0.50086,-0.41568 0.91066,-0.59057 0.91066,-0.38864 0,0.20193 3.61607,-0.57589 8.03571,-1.72849 4.41965,-1.1526 9,-2.26361 10.17858,-2.46891 1.17857,-0.2053 3.42541,-0.70701 4.99297,-1.11491 1.56757,-0.40791 3.7707,-0.85815 4.89584,-1.00055 1.12515,-0.14239 2.73545,-0.48417 3.57845,-0.7595 0.84301,-0.27533 2.17559,-0.57748 2.96131,-0.67144 0.78571,-0.094 2.55357,-0.37792 3.92857,-0.63102 4.10637,-0.75587 5.95666,-1.07728 8.21428,-1.42688 1.17858,-0.18251 3.26786,-0.51908 4.64286,-0.74795 6.45107,-1.07378 19.94842,-2.77889 28.57143,-3.60941 2.16071,-0.20811 5.375,-0.52351 7.14286,-0.7009 9.62908,-0.96617 19.25314,-1.49413 37.67857,-2.06695 l 15.17857,-0.47189 v 29.21429 29.21428 l -4.82143,0.45535 c -2.65178,0.25045 -6.97461,0.45764 -9.60627,0.46044 -10.18571,0.0108 -30.81379,3.47131 -45.135,7.5717 -11.21901,3.21218 -10.62691,3.08061 -11.86587,2.63673 z"
       id="path204"
       inkscape:connector-curvature="0"
       transform="scale(0.26458333)" />
    <path
       style="opacity:0.5;fill:#f4d7d7;fill-opacity:1;stroke:none;stroke-width:0.99999988;stroke-linejoin:miter;stroke-miterlimit:1;stroke-dasharray:none;stroke-opacity:0.99004977"
       d="m 429.40176,317.66457 c -14.39645,-4.03128 -28.46981,-6.38086 -43.19642,-7.21172 -7.08125,-0.39951 -13.27679,-0.86396 -13.76786,-1.03211 -0.69458,-0.23783 -0.89286,-6.73846 -0.89286,-29.27322 v -28.9675 l 10.89286,0.40631 c 45.98373,1.71526 72.94791,4.59167 103.75,11.06758 8.03564,1.68943 26.20446,6.13583 28.92857,7.0796 0.98214,0.34026 3.71429,1.15415 6.07143,1.80864 6.46049,1.79383 21.34336,6.88795 22.04927,7.54704 0.98977,0.92413 -3.07299,2.69258 -40.73542,17.73153 -52.34934,20.90357 -59.60896,23.68493 -61.62699,23.61104 -1.00635,-0.0369 -6.169,-1.28209 -11.47258,-2.76719 z"
       id="path206"
       inkscape:connector-curvature="0"
       transform="scale(0.26458333)" />
    <path
       style="opacity:0.5;fill:#f4d7d7;fill-opacity:1;stroke:none;stroke-width:0.99999988;stroke-linejoin:miter;stroke-miterlimit:1;stroke-dasharray:none;stroke-opacity:0.99004977"
       d="m 471.26566,347.45002 c -1.41843,-7.5609 -10.38116,-16.6337 -22.44143,-22.71702 -3.43976,-1.73505 -3.7184,-2.03566 -2.49424,-2.69081 3.59821,-1.9257 101.47907,-41.07257 102.65719,-41.05713 1.56533,0.0205 24.55408,11.53199 30.92912,15.48756 24.87828,15.43644 38.39984,31.87149 40.58043,49.32429 l 0.49821,3.98756 h -74.64567 -74.64566 z"
       id="path208"
       inkscape:connector-curvature="0"
       transform="scale(0.26458333)" />
    <path
       style="opacity:0.5;fill:#f4d7d7;fill-opacity:1;stroke:none;stroke-width:0.99999988;stroke-linejoin:miter;stroke-miterlimit:1;stroke-dasharray:none;stroke-opacity:0.99004977"
       d="m 496.37597,400.25364 c -28.5749,-11.45447 -51.95883,-21.03594 -51.96429,-21.29215 -0.005,-0.25622 0.94357,-0.79823 2.10894,-1.20448 4.04049,-1.40852 12.15131,-6.60497 16.29005,-10.43671 4.27912,-3.96171 7.49499,-8.9918 8.35698,-13.07155 l 0.49048,-2.32142 h 74.58611 74.5861 l -0.009,2.67857 c -0.0116,3.68248 -1.5995,9.32329 -4.17168,14.81992 -7.31826,15.63876 -24.9161,30.91212 -50.34945,43.69885 -5.81815,2.9251 -17.55199,8.1968 -17.85512,8.02183 -0.0634,-0.0366 -23.49474,-9.43838 -52.06964,-20.89286 z"
       id="path210"
       inkscape:connector-curvature="0"
       transform="scale(0.26458333)" />
    <path
       style="opacity:0.5;fill:#f4d7d7;fill-opacity:1;stroke:none;stroke-width:0.99999988;stroke-linejoin:miter;stroke-miterlimit:1;stroke-dasharray:none;stroke-opacity:0.99004977"
       d="m 371.54462,421.29635 v -29.20241 l 1.60714,-0.4307 c 0.88393,-0.23688 4.50197,-0.43508 8.0401,-0.44045 16.23627,-0.0246 45.85728,-5.30883 57.85163,-10.32039 2.39135,-0.99917 2.96756,-0.78987 54.59172,19.82898 28.69617,11.46134 52.17942,21.0458 52.18499,21.2988 0.0141,0.64002 -26.44406,9.33246 -36.41844,11.96475 -37.18454,9.81318 -89.36391,16.50162 -128.75,16.50341 l -9.10714,4.1e-4 z"
       id="path212"
       inkscape:connector-curvature="0"
       transform="scale(0.26458333)" />
    <path
       style="opacity:0.5;fill:#ffe680;fill-opacity:1;stroke:none;stroke-width:0.99999988;stroke-linejoin:miter;stroke-miterlimit:1;stroke-dasharray:none;stroke-opacity:0.99004977"
       d="m 344.75891,450.02349 c -35.97372,-2.19345 -54.72765,-4.32944 -80.18407,-9.13263 -24.17506,-4.56141 -43.09454,-9.76357 -66.51988,-18.29053 -2.37012,-0.86273 -1.38148,-1.29499 49.70083,-21.73028 l 52.11905,-20.85004 8.2093,2.68912 c 14.2114,4.65522 37.66449,8.49303 52.02753,8.51366 3.73455,0.005 7.51331,0.20357 8.39724,0.44045 l 1.60714,0.4307 v 29.20241 29.2024 l -10.89286,-0.12874 c -5.99107,-0.0708 -12.5,-0.22675 -14.46428,-0.34652 z"
       id="path214"
       inkscape:connector-curvature="0"
       transform="scale(0.26458333)" />
    <path
       style="opacity:0.5;fill:#ccff00;fill-opacity:1;stroke:none;stroke-width:0.99999988;stroke-linejoin:miter;stroke-miterlimit:1;stroke-dasharray:none;stroke-opacity:0.99004977"
       d="M 371.54462,421.38654 V 392.1215 l 3.31398,-0.45423 c 1.82269,-0.24983 5.76979,-0.45423 8.77133,-0.45423 13.29971,0 39.60134,-4.56053 53.01591,-9.19262 l 4.0298,-1.3915 6.32735,2.12084 c 6.68042,2.23919 86.86078,34.14051 94.18449,37.47314 2.77926,1.26469 3.84633,2.05095 3.03571,2.23683 -0.6875,0.15765 -1.25,0.54878 -1.25,0.86918 0,0.3204 -0.40178,0.54501 -0.89285,0.49915 -1.4031,-0.13106 -9.10715,2.58211 -9.10715,3.20729 0,0.30879 -0.48214,0.37641 -1.07143,0.15028 -0.58928,-0.22613 -1.07142,-0.0654 -1.07142,0.35714 0,0.42256 -0.48215,0.58328 -1.07143,0.35715 -0.58929,-0.22613 -1.07143,-0.0364 -1.07143,0.42171 0,0.45807 -0.26047,0.67188 -0.57882,0.47513 -0.86373,-0.53381 -6.56404,1.05629 -6.56404,1.83103 0,0.36826 -0.29446,0.48758 -0.65434,0.26515 -0.35989,-0.22242 -1.56525,-0.0288 -2.67857,0.43033 -1.11333,0.45911 -2.25415,0.78656 -2.53517,0.72766 -0.28101,-0.0589 -1.40601,0.26075 -2.5,0.71032 -1.09398,0.44957 -2.31049,0.87904 -2.70335,0.95437 -0.39285,0.0753 -0.875,0.21052 -1.07143,0.30042 -0.19642,0.0899 -0.83928,0.28078 -1.42857,0.42418 -0.58928,0.1434 -1.875,0.47043 -2.85714,0.72671 -0.98214,0.25629 -2.34189,0.45625 -3.02165,0.44436 -0.67976,-0.0119 -1.41327,0.2653 -1.63001,0.61601 -0.21675,0.3507 -0.83343,0.46904 -1.37039,0.26299 -0.53697,-0.20605 -1.17983,-0.0453 -1.42857,0.35714 -0.24875,0.40249 -0.89161,0.5632 -1.42857,0.35715 -0.53697,-0.20606 -1.19659,-0.0182 -1.46582,0.41739 -0.26923,0.43562 -1.07825,0.60517 -1.79785,0.37678 -0.71959,-0.22839 -1.49643,-0.11092 -1.72631,0.26103 -0.22988,0.37196 -1.02423,0.51775 -1.76522,0.32398 -0.74098,-0.19378 -1.54455,-0.0331 -1.78571,0.35714 -0.24116,0.3902 -1.081,0.54143 -1.86633,0.33606 -0.78532,-0.20537 -1.42786,-0.059 -1.42786,0.32515 0,0.3842 -0.80357,0.54493 -1.78571,0.35718 -1.01745,-0.1945 -1.78571,-0.008 -1.78571,0.43378 0,0.42632 -0.48215,0.59012 -1.07143,0.36399 -0.58929,-0.22613 -1.63393,-0.16825 -2.32143,0.12862 -0.6875,0.29687 -1.97322,0.46897 -2.85714,0.38245 -0.88393,-0.0865 -1.60715,0.13144 -1.60715,0.48437 0,0.35293 -0.96428,0.50017 -2.14285,0.32719 -1.25455,-0.18413 -2.14286,0.006 -2.14286,0.45843 0,0.42512 -0.48214,0.58793 -1.07143,0.3618 -0.58929,-0.22613 -1.63393,-0.16825 -2.32143,0.12862 -0.6875,0.29687 -1.96783,0.46968 -2.84518,0.38401 -0.87734,-0.0857 -1.97771,0.0807 -2.44526,0.36963 -0.92579,0.57217 -3.94629,0.95917 -7.51295,0.9626 -1.24723,0.001 -2.44492,0.28894 -2.66153,0.63943 -0.21661,0.35048 -1.19972,0.48319 -2.18469,0.2949 -0.98497,-0.18829 -2.35871,-0.0994 -3.05276,0.1975 -0.69405,0.29691 -2.54763,0.6521 -4.11906,0.78931 -1.57143,0.13722 -4.14285,0.39708 -5.71428,0.57749 -5.34941,0.61412 -16.42314,1.55663 -25,2.12781 -1.96429,0.13081 -11.36607,0.47241 -20.89286,0.7591 l -17.32143,0.52127 z"
       id="path216"
       inkscape:connector-curvature="0"
       transform="scale(0.26458333)" />
    <path
       style="opacity:0.5;fill:#87decd;fill-opacity:1;stroke:none;stroke-width:0.99999988;stroke-linejoin:miter;stroke-miterlimit:1;stroke-dasharray:none;stroke-opacity:0.99004977"
       d="m 548.33034,420.63997 c -1.96538,-0.40295 -100.929,-40.25007 -102.76125,-41.37621 -0.34011,-0.20904 1.60707,-1.55113 4.32708,-2.98241 6.32629,-3.32894 11.35724,-7.03201 15.16317,-11.16094 3.03328,-3.29073 6.46532,-9.61787 6.4783,-11.94308 0.007,-1.18245 4.03628,-1.25 74.56653,-1.25 h 74.55955 l 0.41056,1.56997 c 0.22581,0.86349 0.0646,1.98677 -0.35814,2.4962 -0.42278,0.50942 -0.60014,1.57079 -0.39412,2.35859 0.20602,0.78781 0.0457,1.43238 -0.35615,1.43238 -0.4019,0 -0.56261,0.64286 -0.35714,1.42857 0.20547,0.78571 0.0479,1.42857 -0.35026,1.42857 -0.39811,0 -0.53882,0.48214 -0.31268,1.07143 0.22612,0.58929 0.0654,1.07143 -0.35715,1.07143 -0.42256,0 -0.58328,0.48214 -0.35714,1.07143 0.22613,0.58928 0.14862,1.07143 -0.17224,1.07143 -0.63902,0 -3.05332,4.97066 -2.91016,5.99156 0.0489,0.34894 -0.22752,0.83108 -0.61433,1.07143 -0.38681,0.24035 -2.20028,2.47149 -4.02992,4.95809 -2.73854,3.72185 -15.3888,16.99497 -15.3888,16.1465 0,-0.30956 -10.49369,7.086 -12.67857,8.93538 -0.88393,0.7482 -1.61737,1.14362 -1.62986,0.8787 -0.0125,-0.26491 -0.49464,0.14227 -1.07143,0.90486 -0.57679,0.76258 -1.04871,1.15611 -1.04871,0.87451 0,-0.2816 -0.96429,-0.0134 -2.14286,0.59611 -1.17857,0.60946 -2.14286,1.44026 -2.14286,1.84621 0,0.40595 -0.32142,0.53944 -0.71428,0.29665 -0.39286,-0.2428 -0.71429,-0.0475 -0.71429,0.43403 0,0.48152 -0.19903,0.67646 -0.44229,0.4332 -0.5142,-0.5142 -10.51231,4.35807 -10.86871,5.29653 -0.13178,0.34697 -0.53356,0.44916 -0.89286,0.2271 -0.3593,-0.22206 -0.65328,-0.0444 -0.65328,0.39485 0,0.43923 -0.32143,0.59994 -0.71429,0.35714 -0.39285,-0.2428 -0.71428,-0.0475 -0.71428,0.43404 0,0.48152 -0.20298,0.67251 -0.45106,0.42443 -0.24808,-0.24809 -1.13201,-0.0727 -1.96428,0.38984 -0.83228,0.4625 -1.7543,0.77262 -2.04895,0.68916 -0.29464,-0.0835 -0.53571,0.22325 -0.53571,0.68158 0,0.45833 -0.21542,0.61792 -0.47869,0.35464 -0.26329,-0.26329 -1.14722,-0.0585 -1.96429,0.45515 -0.81708,0.51361 -2.12845,0.80204 -2.91416,0.64095 z"
       id="path218"
       inkscape:connector-curvature="0"
       transform="scale(0.26458333)" />
  </g>
</svg>
