<?xml version="1.0" encoding="UTF-8" standalone="no"?>
<!-- Created with Inkscape (http://www.inkscape.org/) -->

<svg
   xmlns:dc="http://purl.org/dc/elements/1.1/"
   xmlns:cc="http://creativecommons.org/ns#"
   xmlns:rdf="http://www.w3.org/1999/02/22-rdf-syntax-ns#"
   xmlns:svg="http://www.w3.org/2000/svg"
   xmlns="http://www.w3.org/2000/svg"
   xmlns:sodipodi="http://sodipodi.sourceforge.net/DTD/sodipodi-0.dtd"
   xmlns:inkscape="http://www.inkscape.org/namespaces/inkscape"
   id="svg8"
   version="1.1"
   viewBox="0 0 210 297"
   height="297mm"
   width="210mm"
   inkscape:version="0.92.3 (2405546, 2018-03-11)"
   sodipodi:docname="pad2.svg">
  <defs
     id="defs2" />
  <sodipodi:namedview
     inkscape:window-maximized="1"
     inkscape:window-y="-9"
     inkscape:window-x="-9"
     inkscape:window-height="1001"
     inkscape:window-width="1920"
     showgrid="false"
     inkscape:current-layer="layer1"
     inkscape:document-units="mm"
     inkscape:cy="753.27364"
     inkscape:cx="298.96554"
     inkscape:zoom="1.979899"
     inkscape:pageshadow="2"
     inkscape:pageopacity="0.0"
     borderopacity="1.0"
     bordercolor="#666666"
     pagecolor="#ffffff"
     id="base"
     objecttolerance="10000"
     guidetolerance="10000"
     inkscape:snap-intersection-paths="true"
     showguides="false"
     inkscape:snap-grids="false"
     inkscape:object-nodes="false"
     inkscape:snap-nodes="false"
     inkscape:snap-global="true">
    <inkscape:grid
       type="xygrid"
       id="grid10" />
  </sodipodi:namedview>
  <metadata
     id="metadata5">
    <rdf:RDF>
      <cc:Work
         rdf:about="">
        <dc:format>image/svg+xml</dc:format>
        <dc:type
           rdf:resource="http://purl.org/dc/dcmitype/StillImage" />
        <dc:title></dc:title>
      </cc:Work>
    </rdf:RDF>
  </metadata>
  <g
     inkscape:label="Layer 1"
     inkscape:groupmode="layer"
     id="layer1">
    <g
       id="Q">
      <path
         inkscape:connector-curvature="0"
         id="path234"
         d="m 32.039078,91.529325 c 0,-1.428353 1.123231,-4.189201 2.47509,-6.083665 1.597678,-2.238946 4.026961,-4.467381 7.01298,-6.433158 2.395725,-1.577176 7.682124,-4.28666 8.953529,-4.589034 0.489537,-0.116425 4.309043,1.29935 14.286618,5.295611 l 13.618446,5.454518 -1.591318,0.806244 c -2.981526,1.510596 -4.945362,3.467502 -5.482823,5.463471 L 71.039825,92.45261 H 51.539452 32.039078 Z"
         style="opacity:0.5;fill:#ff7f2a;fill-opacity:1;stroke:none;stroke-width:0.26458332;stroke-linejoin:miter;stroke-miterlimit:1;stroke-dasharray:none;stroke-opacity:0.99004977" />
      <text
         id="text57"
         y="84.624687"
         x="55.741577"
         style="font-style:normal;font-weight:normal;font-size:3.88055563px;line-height:1.25;font-family:sans-serif;text-align:center;letter-spacing:0px;word-spacing:0px;text-anchor:middle;fill:#000000;fill-opacity:1;stroke:none;stroke-width:0.26458332"
         xml:space="preserve"><tspan
           style="stroke-width:0.26458332"
           y="84.624687"
           x="55.741577"
           id="tspan55"
           sodipodi:role="line">Q</tspan></text>
    </g>
    <g
       id="W">
      <path
         transform="scale(0.26458333)"
         inkscape:connector-curvature="0"
         id="path190"
         d="m 247.43533,300.64865 c -27.99225,-11.23723 -50.65296,-20.65571 -50.35714,-20.92995 0.76684,-0.71091 18.03362,-6.61862 26.74741,-9.15145 38.66143,-11.23768 82.21102,-17.62838 130.04045,-19.08284 l 16.25,-0.49415 v 29.30002 29.30001 l -3.31398,0.45423 c -1.82269,0.24983 -5.82826,0.45423 -8.90126,0.45423 -12.65246,0 -37.43882,4.22923 -50.33564,8.58863 -3.45869,1.16911 -6.95145,2.09572 -7.76168,2.05913 -0.81023,-0.0366 -24.3759,-9.26063 -52.36816,-20.49786 z"
         style="opacity:0.5;fill:#e9c6af;fill-opacity:1;stroke:none;stroke-width:0.99999988;stroke-linejoin:miter;stroke-miterlimit:1;stroke-dasharray:none;stroke-opacity:0.99004977" />
      <text
         id="text61"
         y="77.103531"
         x="80.513443"
         style="font-style:normal;font-weight:normal;font-size:3.88055563px;line-height:1.25;font-family:sans-serif;text-align:center;letter-spacing:0px;word-spacing:0px;text-anchor:middle;fill:#000000;fill-opacity:1;stroke:none;stroke-width:0.26458332"
         xml:space="preserve"><tspan
           style="stroke-width:0.26458332"
           y="77.103531"
           x="80.513443"
           id="tspan59"
           sodipodi:role="line">W</tspan></text>
    </g>
    <g
       id="E">
      <path
         transform="scale(0.26458333)"
         inkscape:connector-curvature="0"
         id="path192"
         d="m 432.65546,318.66778 c -13.08897,-4.19041 -35.77413,-8.16253 -46.68314,-8.1741 -2.63166,-0.003 -6.95448,-0.20999 -9.60627,-0.46044 l -4.82143,-0.45535 v -29.21344 -29.21344 l 14.82143,0.44249 c 19.33786,0.57732 29.76389,1.13407 40.17857,2.14553 2.16072,0.20985 5.375,0.50998 7.14286,0.66695 7.40245,0.65732 21.62243,2.48634 28.57143,3.67497 0.98214,0.16799 2.78246,0.41073 4.00071,0.53941 1.21825,0.12867 2.50397,0.4114 2.85714,0.62828 0.35318,0.21687 2.24929,0.57822 4.21358,0.80298 3.67627,0.42067 3.96133,0.47387 10,1.86628 1.96428,0.45293 4.53571,0.98516 5.71428,1.18273 4.49304,0.7532 5,0.85472 5,1.00119 0,0.0829 0.64286,0.2525 1.42857,0.37694 0.78572,0.12444 4.64286,1.09123 8.57143,2.14842 3.92857,1.05718 7.625,1.99388 8.21429,2.08154 0.58928,0.0877 1.9665,0.52257 3.06049,0.96645 1.09399,0.44389 2.21899,0.75888 2.5,0.69998 0.28101,-0.0589 1.47522,0.29304 2.65379,0.78208 1.17857,0.48904 2.94643,1.00094 3.92857,1.13756 0.98215,0.13661 1.86608,0.31072 1.96429,0.38689 0.0982,0.0762 0.5,0.21886 0.89286,0.31707 0.39285,0.0982 0.875,0.25893 1.07143,0.35715 0.19642,0.0982 0.59821,0.24651 0.89285,0.32954 0.29465,0.083 1.07312,0.38905 1.72994,0.68002 0.65682,0.29097 1.78182,0.6404 2.5,0.77652 0.71818,0.13611 1.38613,0.31224 1.48435,0.39141 0.0982,0.0792 0.41964,0.21317 0.71428,0.29779 0.29465,0.0846 1.7868,0.71072 3.31591,1.39133 1.52912,0.68062 3.37733,1.28246 4.10714,1.33744 2.61927,0.1973 1.2209,1.61625 -3.50538,3.55698 -20.92886,8.59389 -95.89328,38.39764 -97.31052,38.68793 -1.01873,0.20866 -5.14353,-0.70924 -9.60345,-2.13708 z"
         style="opacity:0.5;fill:#d45500;fill-opacity:1;stroke:none;stroke-width:0.99999988;stroke-linejoin:miter;stroke-miterlimit:1;stroke-dasharray:none;stroke-opacity:0.99004977" />
      <text
         id="text65"
         y="77.083366"
         x="115.05733"
         style="font-style:normal;font-weight:normal;font-size:3.88055563px;line-height:1.25;font-family:sans-serif;text-align:center;letter-spacing:0px;word-spacing:0px;text-anchor:middle;fill:#000000;fill-opacity:1;stroke:none;stroke-width:0.26458332"
         xml:space="preserve"><tspan
           style="stroke-width:0.26458332"
           y="77.083366"
           x="115.05733"
           id="tspan63"
           sodipodi:role="line">E</tspan></text>
    </g>
    <g
       id="D">
      <path
         transform="scale(0.26458333)"
         inkscape:connector-curvature="0"
         id="path184"
         d="m 471.15622,347.46304 c -0.87711,-4.05686 -3.66405,-8.63526 -7.58944,-12.46798 -3.78659,-3.6972 -14.42567,-10.60453 -17.53618,-11.38522 -0.89586,-0.22485 -1.62884,-0.63275 -1.62884,-0.90644 0,-0.2737 23.46338,-9.88034 52.14085,-21.3481 l 52.14084,-20.85047 9.97577,4.54961 c 29.27374,13.35075 48.97227,29.16868 57.55923,46.2201 2.64834,5.2589 4.61189,12.04312 4.61189,15.93446 v 2.57547 h -74.5861 -74.58611 z"
         style="opacity:0.5;fill:#ffeeaa;fill-opacity:1;stroke:none;stroke-width:0.99999988;stroke-linejoin:miter;stroke-miterlimit:1;stroke-dasharray:none;stroke-opacity:0.99004977" />
      <text
         id="text69"
         y="84.796494"
         x="140.84459"
         style="font-style:normal;font-weight:normal;font-size:3.88055563px;line-height:1.25;font-family:sans-serif;text-align:center;letter-spacing:0px;word-spacing:0px;text-anchor:middle;fill:#000000;fill-opacity:1;stroke:none;stroke-width:0.26458332"
         xml:space="preserve"><tspan
           style="stroke-width:0.26458332"
           y="84.796494"
           x="140.84459"
           id="tspan67"
           sodipodi:role="line">D</tspan></text>
    </g>
    <g
       id="S">
      <path
         transform="scale(0.26458333)"
         inkscape:connector-curvature="0"
         id="path111"
         d="m 348.33034,388.99014 c -23.37914,-2.18663 -46.54347,-8.51682 -59.64213,-16.29859 -17.75443,-10.54771 -21.7664,-23.37507 -10.96121,-35.04596 10.56191,-11.40812 31.24657,-19.43276 62.03191,-24.06536 6.94666,-1.04534 12.90413,-1.28355 31.42857,-1.25667 19.97978,0.029 24.13821,0.23292 33.03361,1.62005 33.13341,5.16676 56.16324,15.63136 63.40925,28.81274 11.39274,20.72481 -22.5177,41.54984 -75.37143,46.28701 -9.51522,0.85283 -34.56574,0.82248 -43.92857,-0.0532 z"
         style="opacity:0.5;fill:#aaccff;fill-opacity:1;stroke:none;stroke-width:0.99999988;stroke-linejoin:miter;stroke-miterlimit:1;stroke-dasharray:none;stroke-opacity:0.99004977" />
      <text
         id="text73"
         y="94.279594"
         x="98.087448"
         style="font-style:normal;font-weight:normal;font-size:3.88055563px;line-height:1.25;font-family:sans-serif;text-align:center;letter-spacing:0px;word-spacing:0px;text-anchor:middle;fill:#000000;fill-opacity:1;stroke:none;stroke-width:0.26458332"
         xml:space="preserve"><tspan
           style="stroke-width:0.26458332"
           y="94.279594"
           x="98.087448"
           id="tspan71"
           sodipodi:role="line">S</tspan></text>
    </g>
    <g
       id="g119">
      <path
         inkscape:connector-curvature="0"
         id="path200"
         d="m 49.449185,110.44841 c -5.672614,-2.50709 -9.808763,-5.19847 -12.857094,-8.36608 -2.535674,-2.634882 -4.062994,-5.48987 -4.409564,-8.242712 l -0.113017,-0.897691 19.6039,2.62e-4 19.6039,2.62e-4 0.331274,1.127334 c 0.262316,0.892664 0.573384,1.386149 1.494324,2.370637 1.129382,1.207315 3.549354,2.882556 4.836192,3.347871 0.337836,0.12217 0.613148,0.268817 0.611799,0.325887 -0.003,0.12625 -27.228311,10.99226 -27.495315,10.97377 -0.103944,-0.007 -0.826823,-0.29499 -1.606399,-0.63954 z"
         style="opacity:0.5;fill:#00ffff;fill-opacity:1;stroke:none;stroke-width:0.26458329;stroke-linejoin:miter;stroke-miterlimit:1;stroke-dasharray:none;stroke-opacity:0.99004977" />
      <text
         id="text77"
         y="103.42942"
         x="55.310207"
         style="font-style:normal;font-weight:normal;font-size:3.88055563px;line-height:1.25;font-family:sans-serif;text-align:center;letter-spacing:0px;word-spacing:0px;text-anchor:middle;fill:#000000;fill-opacity:1;stroke:none;stroke-width:0.26458332"
         xml:space="preserve"><tspan
           style="stroke-width:0.26458332"
           y="103.42942"
           x="55.310207"
           id="tspan75"
           sodipodi:role="line">A</tspan></text>
    </g>
    <g
       id="Z">
      <path
         inkscape:connector-curvature="0"
         id="path230"
         d="m 90.329172,119.04167 c -8.700844,-0.37082 -18.542855,-1.70309 -26.365906,-3.56903 -4.101277,-0.97822 -12.39615,-3.56263 -12.377746,-3.85648 0.0057,-0.0916 6.169642,-2.60544 13.697564,-5.58632 l 13.687131,-5.41979 2.437181,0.79811 c 3.283428,1.07522 8.038292,1.87538 12.329461,2.07484 l 3.541321,0.16461 v 7.84323 7.84323 l -1.00226,-0.0408 c -0.551244,-0.0225 -3.227279,-0.13566 -5.946746,-0.25156 z"
         style="opacity:0.5;fill:#c4c8b7;fill-opacity:1;stroke:none;stroke-width:0.26458332;stroke-linejoin:miter;stroke-miterlimit:1;stroke-dasharray:none;stroke-opacity:0.99004977" />
      <text
         id="text81"
         y="111.19754"
         x="80.669388"
         style="font-style:normal;font-weight:normal;font-size:3.88055563px;line-height:1.25;font-family:sans-serif;text-align:center;letter-spacing:0px;word-spacing:0px;text-anchor:middle;fill:#000000;fill-opacity:1;stroke:none;stroke-width:0.26458332"
         xml:space="preserve"><tspan
           style="stroke-width:0.26458332"
           y="111.19754"
           x="80.669388"
           id="tspan79"
           sodipodi:role="line">Z</tspan></text>
    </g>
    <g
       id="X">
      <path
         transform="scale(0.26458333)"
         inkscape:connector-curvature="0"
         id="path232"
         d="m 371.68587,421.21926 v -29.79184 h 7.61596 c 16.04333,0 39.42571,-3.6947 54.47758,-8.60813 l 7.91977,-2.58527 51.10885,20.39187 c 28.10987,11.21552 51.47562,20.71479 51.92391,21.10948 1.00357,0.88359 -12.88599,5.88907 -29.09933,10.48675 -37.54273,10.64613 -77.03251,16.18712 -130.05714,18.24891 l -13.8896,0.54007 z"
         style="opacity:0.5;fill:#99ff55;fill-opacity:1;stroke:none;stroke-width:0.99999994;stroke-linejoin:miter;stroke-miterlimit:1;stroke-dasharray:none;stroke-opacity:0.99004977" />
      <text
         id="text85"
         y="111.38127"
         x="115.38644"
         style="font-style:normal;font-weight:normal;font-size:3.88055563px;line-height:1.25;font-family:sans-serif;text-align:center;letter-spacing:0px;word-spacing:0px;text-anchor:middle;fill:#000000;fill-opacity:1;stroke:none;stroke-width:0.26458332"
         xml:space="preserve"><tspan
           style="stroke-width:0.26458332"
           y="111.38127"
           x="115.38644"
           id="tspan83"
           sodipodi:role="line">X</tspan></text>
    </g>
    <g
       id="C">
      <path
         transform="scale(0.26458333)"
         inkscape:connector-curvature="0"
         id="path210"
         d="m 496.37597,400.25364 c -28.5749,-11.45447 -51.95883,-21.03594 -51.96429,-21.29215 -0.005,-0.25622 0.94357,-0.79823 2.10894,-1.20448 4.04049,-1.40852 12.15131,-6.60497 16.29005,-10.43671 4.27912,-3.96171 7.49499,-8.9918 8.35698,-13.07155 l 0.49048,-2.32142 h 74.58611 74.5861 l -0.009,2.67857 c -0.0116,3.68248 -1.5995,9.32329 -4.17168,14.81992 -7.31826,15.63876 -24.9161,30.91212 -50.34945,43.69885 -5.81815,2.9251 -17.55199,8.1968 -17.85512,8.02183 -0.0634,-0.0366 -23.49474,-9.43838 -52.06964,-20.89286 z"
         style="opacity:0.5;fill:#f4d7d7;fill-opacity:1;stroke:none;stroke-width:0.99999988;stroke-linejoin:miter;stroke-miterlimit:1;stroke-dasharray:none;stroke-opacity:0.99004977" />
      <text
         id="text89"
         y="103.68436"
         x="140.92075"
         style="font-style:normal;font-weight:normal;font-size:3.88055563px;line-height:1.25;font-family:sans-serif;text-align:center;letter-spacing:0px;word-spacing:0px;text-anchor:middle;fill:#000000;fill-opacity:1;stroke:none;stroke-width:0.26458332"
         xml:space="preserve"><tspan
           style="stroke-width:0.26458332"
           y="103.68436"
           x="140.92075"
           id="tspan87"
           sodipodi:role="line">C</tspan></text>
    </g>
  </g>
  <g
     inkscape:groupmode="layer"
     id="layer2"
     inkscape:label="Layer 2"
     style="display:none">
    <g
       id="g173"
       transform="translate(56.828039,-23.99226)"
       style="fill:#2affd5">
      <path
         style="opacity:0.5;fill:#2affd5;fill-opacity:1;stroke:none;stroke-width:0.26458332;stroke-linejoin:miter;stroke-miterlimit:1;stroke-dasharray:none;stroke-opacity:0.99004977"
         d="M 153.64339,162.07806 A 66.145836,26.458332 0 0 1 87.497559,188.5364 66.145836,26.458332 0 0 1 21.351723,162.07806 66.145836,26.458332 0 0 1 87.497559,135.61973 66.145836,26.458332 0 0 1 153.64339,162.07806 Z"
         id="path12"
         inkscape:connector-curvature="0" />
      <g
         transform="translate(3.3333333e-6,60.85417)"
         id="g64"
         style="fill:#2affd5">
        <g
           id="g59"
           style="fill:#2affd5" />
        <g
           id="g125"
           style="fill:#2affd5">
          <path
             sodipodi:nodetypes="cccc"
             inkscape:connector-curvature="0"
             style="fill:#2affd5;stroke:#000000;stroke-width:0.26458332px;stroke-linecap:butt;stroke-linejoin:miter;stroke-opacity:1"
             d="M 40.733444,82.576712 68.58475,93.717235 m 65.67648,26.270595 -28.26987,-11.30795"
             id="path80" />
        </g>
      </g>
      <path
         sodipodi:nodetypes="cccc"
         inkscape:connector-curvature="0"
         id="path22"
         d="m 134.08858,143.35206 -27.99418,11.19767 m -37.498379,14.99935 c -9.339115,3.73565 -18.67823,7.47129 -28.017346,11.20694"
         style="fill:#2affd5;stroke:#000000;stroke-width:0.26458332px;stroke-linecap:butt;stroke-linejoin:miter;stroke-opacity:1" />
      <g
         id="g147"
         style="fill:#2affd5">
        <path
           id="path160"
           d="m 87.312499,151.47912 c -14.612536,0 -26.458336,4.73832 -26.458333,10.58334 5e-6,5.84501 11.845803,10.58333 26.458333,10.58333"
           style="fill:#2affd5;stroke:#000000;stroke-width:0.26458332px;stroke-linecap:butt;stroke-linejoin:miter;stroke-opacity:1"
           inkscape:connector-curvature="0" />
        <path
           id="path158"
           d="m 87.312499,172.64579 c 14.612531,0 26.458331,-4.73832 26.458331,-10.58333 0,-5.84502 -11.8458,-10.58334 -26.458331,-10.58334"
           style="fill:#2affd5;stroke:#000000;stroke-width:0.26458332px;stroke-linecap:butt;stroke-linejoin:miter;stroke-opacity:1"
           inkscape:connector-curvature="0" />
        <path
           sodipodi:nodetypes="cccc"
           inkscape:connector-curvature="0"
           id="path28"
           d="m 87.3125,135.60416 v 15.875 m 0,21.16666 v 15.875"
           style="fill:#2affd5;stroke:#000000;stroke-width:0.26458332px;stroke-linecap:butt;stroke-linejoin:miter;stroke-opacity:1" />
      </g>
      <path
         sodipodi:nodetypes="cccccc"
         inkscape:connector-curvature="0"
         id="path30"
         d="m 153.45833,162.06249 h -39.64025 m -53.01116,0 H 21.166667 v 0 0"
         style="fill:#2affd5;stroke:#000000;stroke-width:0.26458332px;stroke-linecap:butt;stroke-linejoin:miter;stroke-opacity:1" />
    </g>
  </g>
</svg>
