<?xml version="1.0" encoding="UTF-8" standalone="no"?>
<!-- Created with Inkscape (http://www.inkscape.org/) -->

<svg
   xmlns:osb="http://www.openswatchbook.org/uri/2009/osb"
   xmlns:dc="http://purl.org/dc/elements/1.1/"
   xmlns:cc="http://creativecommons.org/ns#"
   xmlns:rdf="http://www.w3.org/1999/02/22-rdf-syntax-ns#"
   xmlns:svg="http://www.w3.org/2000/svg"
   xmlns="http://www.w3.org/2000/svg"
   xmlns:sodipodi="http://sodipodi.sourceforge.net/DTD/sodipodi-0.dtd"
   xmlns:inkscape="http://www.inkscape.org/namespaces/inkscape"
   sodipodi:docname="pad2-3d.svg"
   inkscape:version="0.92.3 (2405546, 2018-03-11)"
   width="400"
   height="200"
   viewBox="0 50 200 100"
   version="1.1"
   id="svg8">
  <sodipodi:namedview
     inkscape:snap-global="true"
     inkscape:snap-nodes="false"
     inkscape:object-nodes="false"
     inkscape:snap-grids="false"
     showguides="true"
     inkscape:snap-intersection-paths="true"
     guidetolerance="10000"
     objecttolerance="10000"
     id="base"
     pagecolor="#ffffff"
     bordercolor="#666666"
     borderopacity="1.0"
     inkscape:pageopacity="0.0"
     inkscape:pageshadow="2"
     inkscape:zoom="4"
     inkscape:cx="172.00645"
     inkscape:cy="134.7301"
     inkscape:document-units="px"
     inkscape:current-layer="layer1"
     showgrid="false"
     inkscape:window-width="1920"
     inkscape:window-height="1001"
     inkscape:window-x="-9"
     inkscape:window-y="-9"
     inkscape:window-maximized="1"
     inkscape:object-paths="true">
    <inkscape:grid
       id="grid10"
       type="xygrid" />
  </sodipodi:namedview>
  <defs
     id="defs2">
    <linearGradient
       id="linearGradient3245"
       osb:paint="solid">
      <stop
         style="stop-color:#005eff;stop-opacity:1;"
         offset="0"
         id="stop3243" />
    </linearGradient>
  </defs>
  <metadata
     id="metadata5">
    <rdf:RDF>
      <cc:Work
         rdf:about="">
        <dc:format>image/svg+xml</dc:format>
        <dc:type
           rdf:resource="http://purl.org/dc/dcmitype/StillImage" />
        <dc:title></dc:title>
      </cc:Work>
    </rdf:RDF>
  </metadata>
  <g
     style="display:inline"
     id="layer1"
     inkscape:groupmode="layer"
     inkscape:label="Layer 1">
    <g
       transform="translate(-0.03534198,1.5533535)"
       style="display:inline;fill:#d38d5f;fill-opacity:1"
       id="W-5">
      <path
         style="opacity:1;fill:#d38d5f;fill-opacity:1;stroke:none;stroke-width:0.99999988;stroke-linejoin:miter;stroke-miterlimit:1;stroke-dasharray:none;stroke-opacity:0.99004977"
         d="m 247.43533,300.64865 c -27.99225,-11.23723 -50.65296,-20.65571 -50.35714,-20.92995 0.76684,-0.71091 18.03362,-6.61862 26.74741,-9.15145 38.66143,-11.23768 82.21102,-17.62838 130.04045,-19.08284 l 16.25,-0.49415 v 29.30002 29.30001 l -3.31398,0.45423 c -1.82269,0.24983 -5.82826,0.45423 -8.90126,0.45423 -12.65246,0 -37.43882,4.22923 -50.33564,8.58863 -3.45869,1.16911 -6.95145,2.09572 -7.76168,2.05913 -0.81023,-0.0366 -24.3759,-9.26063 -52.36816,-20.49786 z"
         id="path190-4"
         inkscape:connector-curvature="0"
         transform="scale(0.26458333)"
         sodipodi:nodetypes="scssccccsscs" />
      <text
         xml:space="preserve"
         style="font-style:normal;font-weight:normal;font-size:3.88055563px;line-height:1.25;font-family:sans-serif;text-align:center;letter-spacing:0px;word-spacing:0px;text-anchor:middle;fill:#d38d5f;fill-opacity:1;stroke:none;stroke-width:0.26458332"
         x="80.513443"
         y="77.103531"
         id="text61-2"><tspan
           sodipodi:role="line"
           id="tspan59-7"
           x="80.513443"
           y="77.103531"
           style="fill:#d38d5f;fill-opacity:1;stroke-width:0.26458332">W</tspan></text>
    </g>
    <ellipse
       style="opacity:1;fill:#47b1b1;fill-opacity:0.89019608;stroke:none;stroke-width:0;stroke-linejoin:miter;stroke-miterlimit:4;stroke-dasharray:none;stroke-dashoffset:0;stroke-opacity:0.6;paint-order:stroke fill markers"
       id="path962"
       cx="98.437508"
       cy="95.125"
       rx="66.5625"
       ry="27.5" />
    <path
       style="fill:#00e6e6;fill-opacity:1;stroke:#000000;stroke-width:0;stroke-linecap:butt;stroke-linejoin:miter;stroke-miterlimit:4;stroke-dasharray:none;stroke-opacity:1"
       d="m 32.046875,92.96875 0.176777,5.735755 c 2.21016,6.710015 11.55009,11.048415 19.09329,15.091915 L 51,111.03125 C 35.130562,103.84601 33.314757,98.552318 32.046875,92.96875 Z"
       id="path3985"
       inkscape:connector-curvature="0"
       sodipodi:nodetypes="ccccc" />
    <path
       style="fill:#deaa87;stroke:#000000;stroke-width:0;stroke-linecap:butt;stroke-linejoin:miter;stroke-opacity:1;stroke-miterlimit:4;stroke-dasharray:none"
       d="m 52.149125,73.986021 0.0072,2.138979 26.96875,10.90625 0.09375,-2.125 z"
       id="path908"
       inkscape:connector-curvature="0" />
    <g
       id="Q">
      <path
         style="opacity:1;fill:#ff7f2a;fill-opacity:1;stroke:none;stroke-width:0.26458332;stroke-linejoin:miter;stroke-miterlimit:1;stroke-dasharray:none;stroke-opacity:0.99004977"
         d="m 32.039078,91.529325 c 0,-1.428353 1.123231,-4.189201 2.47509,-6.083665 1.597678,-2.238946 4.026961,-4.467381 7.01298,-6.433158 2.395725,-1.577176 7.682124,-4.28666 8.953529,-4.589034 0.489537,-0.116425 4.309043,1.29935 14.286618,5.295611 l 13.618446,5.454518 -1.591318,0.806244 c -2.981526,1.510596 -4.945362,3.467502 -5.482823,5.463471 L 71.039825,92.45261 H 51.539452 32.039078 Z"
         id="path234"
         inkscape:connector-curvature="0" />
      <text
         xml:space="preserve"
         style="font-style:normal;font-weight:normal;font-size:3.88055563px;line-height:1.25;font-family:sans-serif;text-align:center;letter-spacing:0px;word-spacing:0px;text-anchor:middle;fill:#000000;fill-opacity:1;stroke:none;stroke-width:0.26458332"
         x="55.741577"
         y="84.624687"
         id="text57"><tspan
           sodipodi:role="line"
           id="tspan55"
           x="55.741577"
           y="84.624687"
           style="stroke-width:0.26458332">Q</tspan></text>
    </g>
    <g
       id="W">
      <path
         style="opacity:1;fill:#e9c6af;fill-opacity:1;stroke:none;stroke-width:0.99999988;stroke-linejoin:miter;stroke-miterlimit:1;stroke-dasharray:none;stroke-opacity:0.99004977"
         d="m 247.43533,300.64865 c -27.99225,-11.23723 -50.65296,-20.65571 -50.35714,-20.92995 0.76684,-0.71091 18.03362,-6.61862 26.74741,-9.15145 38.66143,-11.23768 82.21102,-17.62838 130.04045,-19.08284 l 16.25,-0.49415 v 29.30002 29.30001 l -3.31398,0.45423 c -1.82269,0.24983 -5.82826,0.45423 -8.90126,0.45423 -12.65246,0 -37.43882,4.22923 -50.33564,8.58863 -3.45869,1.16911 -6.95145,2.09572 -7.76168,2.05913 -0.81023,-0.0366 -24.3759,-9.26063 -52.36816,-20.49786 z"
         id="path190"
         inkscape:connector-curvature="0"
         transform="scale(0.26458333)"
         sodipodi:nodetypes="scssccccsscs" />
      <g
         aria-label="W"
         style="font-style:normal;font-weight:normal;font-size:3.88055563px;line-height:1.25;font-family:sans-serif;text-align:center;letter-spacing:0px;word-spacing:0px;text-anchor:middle;fill:#000000;fill-opacity:1;stroke:none;stroke-width:0.26458332"
         id="text61">
        <path
           d="m 78.724749,74.274591 h 0.38654 l 0.594968,2.39124 0.593073,-2.39124 h 0.43012 l 0.594968,2.39124 0.593074,-2.39124 h 0.388434 l -0.710551,2.82894 h -0.48128 l -0.596862,-2.455664 -0.602548,2.455664 h -0.481279 z"
           style="stroke-width:0.26458332"
           id="path905" />
      </g>
    </g>
    <g
       transform="translate(0.01824501,1.4561036)"
       style="display:inline;fill:#aa4400"
       id="E-7">
      <path
         style="opacity:1;fill:#aa4400;fill-opacity:1;stroke:none;stroke-width:0.99999988;stroke-linejoin:miter;stroke-miterlimit:1;stroke-dasharray:none;stroke-opacity:0.99004977"
         d="m 432.65546,318.66778 c -13.08897,-4.19041 -35.77413,-8.16253 -46.68314,-8.1741 -2.63166,-0.003 -6.95448,-0.20999 -9.60627,-0.46044 l -4.82143,-0.45535 v -29.21344 -29.21344 l 14.82143,0.44249 c 19.33786,0.57732 29.76389,1.13407 40.17857,2.14553 2.16072,0.20985 5.375,0.50998 7.14286,0.66695 7.40245,0.65732 21.62243,2.48634 28.57143,3.67497 0.98214,0.16799 2.78246,0.41073 4.00071,0.53941 1.21825,0.12867 2.50397,0.4114 2.85714,0.62828 0.35318,0.21687 2.24929,0.57822 4.21358,0.80298 3.67627,0.42067 3.96133,0.47387 10,1.86628 1.96428,0.45293 4.53571,0.98516 5.71428,1.18273 4.49304,0.7532 5,0.85472 5,1.00119 0,0.0829 0.64286,0.2525 1.42857,0.37694 0.78572,0.12444 4.64286,1.09123 8.57143,2.14842 3.92857,1.05718 7.625,1.99388 8.21429,2.08154 0.58928,0.0877 1.9665,0.52257 3.06049,0.96645 1.09399,0.44389 2.21899,0.75888 2.5,0.69998 0.28101,-0.0589 1.47522,0.29304 2.65379,0.78208 1.17857,0.48904 2.94643,1.00094 3.92857,1.13756 0.98215,0.13661 1.86608,0.31072 1.96429,0.38689 0.0982,0.0762 0.5,0.21886 0.89286,0.31707 0.39285,0.0982 0.875,0.25893 1.07143,0.35715 0.19642,0.0982 0.59821,0.24651 0.89285,0.32954 0.29465,0.083 1.07312,0.38905 1.72994,0.68002 0.65682,0.29097 1.78182,0.6404 2.5,0.77652 0.71818,0.13611 1.38613,0.31224 1.48435,0.39141 0.0982,0.0792 0.41964,0.21317 0.71428,0.29779 0.29465,0.0846 1.7868,0.71072 3.31591,1.39133 1.52912,0.68062 3.37733,1.28246 4.10714,1.33744 2.61927,0.1973 1.2209,1.61625 -3.50538,3.55698 -20.92886,8.59389 -95.89328,38.39764 -97.31052,38.68793 -1.01873,0.20866 -5.14353,-0.70924 -9.60345,-2.13708 z"
         id="path192-4"
         inkscape:connector-curvature="0"
         transform="scale(0.26458333)" />
      <text
         xml:space="preserve"
         style="font-style:normal;font-weight:normal;font-size:3.88055563px;line-height:1.25;font-family:sans-serif;text-align:center;letter-spacing:0px;word-spacing:0px;text-anchor:middle;fill:#aa4400;fill-opacity:1;stroke:none;stroke-width:0.26458332"
         x="115.05733"
         y="77.083366"
         id="text65-8"><tspan
           sodipodi:role="line"
           id="tspan63-1"
           x="115.05733"
           y="77.083366"
           style="fill:#aa4400;stroke-width:0.26458332">E</tspan></text>
    </g>
    <g
       id="E">
      <path
         style="opacity:1;fill:#d45500;fill-opacity:1;stroke:none;stroke-width:0.99999988;stroke-linejoin:miter;stroke-miterlimit:1;stroke-dasharray:none;stroke-opacity:0.99004977"
         d="m 432.65546,318.66778 c -13.08897,-4.19041 -35.77413,-8.16253 -46.68314,-8.1741 -2.63166,-0.003 -6.95448,-0.20999 -9.60627,-0.46044 l -4.82143,-0.45535 v -29.21344 -29.21344 l 14.82143,0.44249 c 19.33786,0.57732 29.76389,1.13407 40.17857,2.14553 2.16072,0.20985 5.375,0.50998 7.14286,0.66695 7.40245,0.65732 21.62243,2.48634 28.57143,3.67497 0.98214,0.16799 2.78246,0.41073 4.00071,0.53941 1.21825,0.12867 2.50397,0.4114 2.85714,0.62828 0.35318,0.21687 2.24929,0.57822 4.21358,0.80298 3.67627,0.42067 3.96133,0.47387 10,1.86628 1.96428,0.45293 4.53571,0.98516 5.71428,1.18273 4.49304,0.7532 5,0.85472 5,1.00119 0,0.0829 0.64286,0.2525 1.42857,0.37694 0.78572,0.12444 4.64286,1.09123 8.57143,2.14842 3.92857,1.05718 7.625,1.99388 8.21429,2.08154 0.58928,0.0877 1.9665,0.52257 3.06049,0.96645 1.09399,0.44389 2.21899,0.75888 2.5,0.69998 0.28101,-0.0589 1.47522,0.29304 2.65379,0.78208 1.17857,0.48904 2.94643,1.00094 3.92857,1.13756 0.98215,0.13661 1.86608,0.31072 1.96429,0.38689 0.0982,0.0762 0.5,0.21886 0.89286,0.31707 0.39285,0.0982 0.875,0.25893 1.07143,0.35715 0.19642,0.0982 0.59821,0.24651 0.89285,0.32954 0.29465,0.083 1.07312,0.38905 1.72994,0.68002 0.65682,0.29097 1.78182,0.6404 2.5,0.77652 0.71818,0.13611 1.38613,0.31224 1.48435,0.39141 0.0982,0.0792 0.41964,0.21317 0.71428,0.29779 0.29465,0.0846 1.7868,0.71072 3.31591,1.39133 1.52912,0.68062 3.37733,1.28246 4.10714,1.33744 2.61927,0.1973 1.2209,1.61625 -3.50538,3.55698 -20.92886,8.59389 -95.89328,38.39764 -97.31052,38.68793 -1.01873,0.20866 -5.14353,-0.70924 -9.60345,-2.13708 z"
         id="path192"
         inkscape:connector-curvature="0"
         transform="scale(0.26458333)" />
      <text
         xml:space="preserve"
         style="font-style:normal;font-weight:normal;font-size:3.88055563px;line-height:1.25;font-family:sans-serif;text-align:center;letter-spacing:0px;word-spacing:0px;text-anchor:middle;fill:#000000;fill-opacity:1;stroke:none;stroke-width:0.26458332"
         x="115.05733"
         y="77.083366"
         id="text65"><tspan
           sodipodi:role="line"
           id="tspan63"
           x="115.05733"
           y="77.083366"
           style="stroke-width:0.26458332">E</tspan></text>
    </g>
    <path
       style="fill:#be4c00;stroke:#000000;stroke-width:0;stroke-linecap:butt;stroke-linejoin:miter;stroke-opacity:1;stroke-miterlimit:4;stroke-dasharray:none;fill-opacity:1"
       d="M 144,73.8125 143.9375,75.375 116.875,86.3125 V 85 Z"
       id="path934"
       inkscape:connector-curvature="0" />
    <g
       transform="translate(0.01617191,1.367979)"
       style="display:inline;fill:#d4be63;fill-opacity:1"
       id="D-2">
      <path
         style="opacity:1;fill:#d4be63;fill-opacity:1;stroke:none;stroke-width:0.99999988;stroke-linejoin:miter;stroke-miterlimit:1;stroke-dasharray:none;stroke-opacity:0.99004977"
         d="m 471.15622,347.46304 c -0.87711,-4.05686 -3.66405,-8.63526 -7.58944,-12.46798 -3.78659,-3.6972 -14.42567,-10.60453 -17.53618,-11.38522 -0.89586,-0.22485 -1.62884,-0.63275 -1.62884,-0.90644 0,-0.2737 23.46338,-9.88034 52.14085,-21.3481 l 52.14084,-20.85047 9.97577,4.54961 c 29.27374,13.35075 48.97227,29.16868 57.55923,46.2201 2.64834,5.2589 4.61189,12.04312 4.61189,15.93446 v 2.57547 h -74.5861 -74.58611 z"
         id="path184-9"
         inkscape:connector-curvature="0"
         transform="scale(0.26458333)" />
      <text
         xml:space="preserve"
         style="font-style:normal;font-weight:normal;font-size:3.88055563px;line-height:1.25;font-family:sans-serif;text-align:center;letter-spacing:0px;word-spacing:0px;text-anchor:middle;fill:#d4be63;fill-opacity:1;stroke:none;stroke-width:0.26458332"
         x="140.84459"
         y="84.796494"
         id="text69-2"><tspan
           sodipodi:role="line"
           id="tspan67-4"
           x="140.84459"
           y="84.796494"
           style="stroke-width:0.26458332;fill:#d4be63;fill-opacity:1">D</tspan></text>
    </g>
    <g
       id="D">
      <path
         style="opacity:1;fill:#ffeeaa;fill-opacity:1;stroke:none;stroke-width:0.99999988;stroke-linejoin:miter;stroke-miterlimit:1;stroke-dasharray:none;stroke-opacity:0.99004977"
         d="m 471.15622,347.46304 c -0.87711,-4.05686 -3.66405,-8.63526 -7.58944,-12.46798 -3.78659,-3.6972 -14.42567,-10.60453 -17.53618,-11.38522 -0.89586,-0.22485 -1.62884,-0.63275 -1.62884,-0.90644 0,-0.2737 23.46338,-9.88034 52.14085,-21.3481 l 52.14084,-20.85047 9.97577,4.54961 c 29.27374,13.35075 48.97227,29.16868 57.55923,46.2201 2.64834,5.2589 4.61189,12.04312 4.61189,15.93446 v 2.57547 h -74.5861 -74.58611 z"
         id="path184"
         inkscape:connector-curvature="0"
         transform="scale(0.26458333)" />
      <text
         xml:space="preserve"
         style="font-style:normal;font-weight:normal;font-size:3.88055563px;line-height:1.25;font-family:sans-serif;text-align:center;letter-spacing:0px;word-spacing:0px;text-anchor:middle;fill:#000000;fill-opacity:1;stroke:none;stroke-width:0.26458332"
         x="140.84459"
         y="84.796494"
         id="text69"><tspan
           sodipodi:role="line"
           id="tspan67"
           x="140.84459"
           y="84.796494"
           style="stroke-width:0.26458332">D</tspan></text>
    </g>
    <path
       style="fill:#ff6805;fill-opacity:1;stroke:#000000;stroke-width:0;stroke-linecap:butt;stroke-linejoin:miter;stroke-miterlimit:4;stroke-dasharray:none;stroke-opacity:1"
       d="m 78.1875,85.1875 c -3.903273,1.999742 -6.497652,3.704543 -7.0625,7.0625 l -0.03125,2.25 c 1.533829,-3.878054 4.548615,-6.25667 7.0625,-8.25 z"
       id="path4007"
       inkscape:connector-curvature="0"
       sodipodi:nodetypes="ccccc" />
    <path
       style="fill:#bea74a;fill-opacity:1;stroke:#000000;stroke-width:0;stroke-linecap:butt;stroke-linejoin:miter;stroke-miterlimit:4;stroke-dasharray:none;stroke-opacity:1"
       d="m 117.5786,85.454409 c 0.007,0.37565 0.0147,0.751301 0.0221,1.126951 l 5.01604,3.358757 2.16551,3.866991 0.0663,-1.303728 c -0.2357,-0.876518 -0.4935,-1.753036 -1.10485,-2.629554 -0.43089,-0.662913 -0.91703,-1.160097 -1.72357,-1.789864 -0.66291,-0.47877 -1.32583,-0.957541 -1.98874,-1.436311 -0.85075,-0.486135 -1.46946,-0.883883 -2.45279,-1.193242 z"
       id="path960"
       inkscape:connector-curvature="0"
       sodipodi:nodetypes="ccccccccc" />
    <g
       id="S">
      <path
         style="opacity:1;fill:#aaccff;fill-opacity:1;stroke:none;stroke-width:0.99999988;stroke-linejoin:miter;stroke-miterlimit:1;stroke-dasharray:none;stroke-opacity:0.99004977"
         d="m 348.33034,388.99014 c -23.37914,-2.18663 -46.54347,-8.51682 -59.64213,-16.29859 -17.75443,-10.54771 -21.7664,-23.37507 -10.96121,-35.04596 10.56191,-11.40812 31.24657,-19.43276 62.03191,-24.06536 6.94666,-1.04534 12.90413,-1.28355 31.42857,-1.25667 19.97978,0.029 24.13821,0.23292 33.03361,1.62005 33.13341,5.16676 56.16324,15.63136 63.40925,28.81274 11.39274,20.72481 -22.5177,41.54984 -75.37143,46.28701 -9.51522,0.85283 -34.56574,0.82248 -43.92857,-0.0532 z"
         id="path111"
         inkscape:connector-curvature="0"
         transform="scale(0.26458333)" />
      <text
         xml:space="preserve"
         style="font-style:normal;font-weight:normal;font-size:3.88055563px;line-height:1.25;font-family:sans-serif;text-align:center;letter-spacing:0px;word-spacing:0px;text-anchor:middle;fill:#000000;fill-opacity:1;stroke:none;stroke-width:0.26458332"
         x="98.087448"
         y="94.279594"
         id="text73"><tspan
           sodipodi:role="line"
           id="tspan71"
           x="98.087448"
           y="94.279594"
           style="stroke-width:0.26458332">S</tspan></text>
    </g>
    <path
       style="fill:#e45b00;fill-opacity:1;stroke:#000000;stroke-width:0;stroke-linecap:butt;stroke-linejoin:miter;stroke-miterlimit:4;stroke-dasharray:none;stroke-opacity:1"
       d="m 32.125,92.375 0.25,3 38.9375,-0.25 -0.1875,-2.875 z"
       id="path3997"
       inkscape:connector-curvature="0"
       sodipodi:nodetypes="ccccc" />
    <path
       style="fill:#7cb0ff;fill-opacity:1;stroke:#000000;stroke-width:0;stroke-linecap:butt;stroke-linejoin:miter;stroke-miterlimit:4;stroke-dasharray:none;stroke-opacity:1"
       d="m 71.859725,92.19402 v 3.712311 C 85.419747,109.98605 115.35823,106.00123 124.125,95.5625 l 0.1875,-3 c 0.14932,5.172841 -14.3918,10.79188 -26.727148,10.51339 C 84.751411,102.78614 72.251058,99.513854 71.859725,92.19402 Z"
       id="path4009"
       inkscape:connector-curvature="0"
       sodipodi:nodetypes="ccccsc" />
    <g
       id="A">
      <path
         sodipodi:nodetypes="cccccccsccsc"
         style="opacity:1;fill:#00ffff;fill-opacity:1;stroke:none;stroke-width:0.26458329;stroke-linejoin:miter;stroke-miterlimit:1;stroke-dasharray:none;stroke-opacity:0.99004977"
         d="m 49.449185,110.44841 c -5.672614,-2.50709 -9.808763,-5.19847 -12.857094,-8.36608 -2.535674,-2.634882 -4.062994,-5.48987 -4.409564,-8.242712 l -0.113017,-0.897691 19.6039,2.62e-4 19.6039,2.62e-4 0.331274,1.127334 c 0.262316,0.892664 0.573384,1.386149 1.494324,2.370637 1.129382,1.207315 3.549354,2.882556 4.836192,3.347871 0.337836,0.12217 0.613148,0.268817 0.611799,0.325887 -0.003,0.12625 -27.228301,10.99212 -27.495315,10.97377 -0.103934,-0.007 -0.826823,-0.29499 -1.606399,-0.63954 z"
         id="path200"
         inkscape:connector-curvature="0" />
      <g
         id="text77"
         style="font-style:normal;font-weight:normal;font-size:3.88055563px;line-height:1.25;font-family:sans-serif;text-align:center;letter-spacing:0px;word-spacing:0px;text-anchor:middle;fill:#000000;fill-opacity:1;stroke:none;stroke-width:0.26458332"
         aria-label="A">
        <path
           inkscape:connector-curvature="0"
           id="path411"
           style="stroke-width:0.26458332"
           d="m 55.310207,100.97755 -0.519176,1.40783 h 1.040247 z M 55.0942,100.60048 h 0.43391 l 1.078142,2.82894 h -0.397908 l -0.257693,-0.72571 h -1.275202 l -0.257694,0.72571 h -0.403593 z" />
      </g>
    </g>
    <path
       style="fill:#00bebe;fill-opacity:1;stroke:#000000;stroke-width:0;stroke-linecap:butt;stroke-linejoin:miter;stroke-miterlimit:4;stroke-dasharray:none;stroke-opacity:1"
       d="m 50.955885,111.10913 0.04419,2.60746 27.532969,-11.49049 0,-2.298099 z"
       id="path3987"
       inkscape:connector-curvature="0"
       sodipodi:nodetypes="ccccc" />
    <g
       id="Z">
      <path
         style="opacity:1;fill:#c4c8b7;fill-opacity:1;stroke:none;stroke-width:0.26458332;stroke-linejoin:miter;stroke-miterlimit:1;stroke-dasharray:none;stroke-opacity:0.99004977"
         d="m 90.329172,119.04167 c -8.700844,-0.37082 -18.542855,-1.70309 -26.365906,-3.56903 -4.101277,-0.97822 -12.39615,-3.56263 -12.377746,-3.85648 0.0057,-0.0916 6.169642,-2.60544 13.697564,-5.58632 l 13.687131,-5.41979 2.437181,0.79811 c 3.283428,1.07522 8.038292,1.87538 12.329461,2.07484 l 3.541321,0.16461 v 7.84323 7.84323 l -1.00226,-0.0408 c -0.551244,-0.0225 -3.227279,-0.13566 -5.946746,-0.25156 z"
         id="path230"
         inkscape:connector-curvature="0" />
      <text
         xml:space="preserve"
         style="font-style:normal;font-weight:normal;font-size:3.88055563px;line-height:1.25;font-family:sans-serif;text-align:center;letter-spacing:0px;word-spacing:0px;text-anchor:middle;fill:#000000;fill-opacity:1;stroke:none;stroke-width:0.26458332"
         x="80.669388"
         y="111.19754"
         id="text81"><tspan
           sodipodi:role="line"
           id="tspan79"
           x="80.669388"
           y="111.19754"
           style="stroke-width:0.26458332">Z</tspan></text>
    </g>
    <path
       style="fill:#e9afaf;stroke:#000000;stroke-width:0;stroke-linecap:butt;stroke-linejoin:miter;stroke-opacity:1;stroke-miterlimit:4;stroke-dasharray:none"
       d="m 117.81574,100.38214 27.3828,11.02609 0.17646,1.96677 -27.6875,-12 z"
       id="path3995"
       inkscape:connector-curvature="0" />
    <g
       id="X">
      <path
         style="opacity:1;fill:#99ff55;fill-opacity:1;stroke:none;stroke-width:0.99999994;stroke-linejoin:miter;stroke-miterlimit:1;stroke-dasharray:none;stroke-opacity:0.99004977"
         d="m 371.68587,421.21926 v -29.79184 h 7.61596 c 16.04333,0 39.42571,-3.6947 54.47758,-8.60813 l 7.91977,-2.58527 51.10885,20.39187 c 28.10987,11.21552 51.47562,20.71479 51.92391,21.10948 1.00357,0.88359 -12.88599,5.88907 -29.09933,10.48675 -37.54273,10.64613 -77.03251,16.18712 -130.05714,18.24891 l -13.8896,0.54007 z"
         id="path232"
         inkscape:connector-curvature="0"
         transform="scale(0.26458333)" />
      <text
         xml:space="preserve"
         style="font-style:normal;font-weight:normal;font-size:3.88055563px;line-height:1.25;font-family:sans-serif;text-align:center;letter-spacing:0px;word-spacing:0px;text-anchor:middle;fill:#000000;fill-opacity:1;stroke:none;stroke-width:0.26458332"
         x="115.38644"
         y="111.38127"
         id="text85"><tspan
           sodipodi:role="line"
           id="tspan83"
           x="115.38644"
           y="111.38127"
           style="stroke-width:0.26458332">X</tspan></text>
    </g>
    <g
       id="C">
      <path
         style="opacity:1;fill:#f4d7d7;fill-opacity:1;stroke:none;stroke-width:0.99999988;stroke-linejoin:miter;stroke-miterlimit:1;stroke-dasharray:none;stroke-opacity:0.99004977"
         d="m 496.37597,400.25364 c -28.5749,-11.45447 -51.95883,-21.03594 -51.96429,-21.29215 -0.005,-0.25622 0.94357,-0.79823 2.10894,-1.20448 4.04049,-1.40852 12.15131,-6.60497 16.29005,-10.43671 4.27912,-3.96171 7.49499,-8.9918 8.35698,-13.07155 l 0.49048,-2.32142 h 74.58611 74.5861 l -0.009,2.67857 c -0.0116,3.68248 -1.5995,9.32329 -4.17168,14.81992 -7.31826,15.63876 -24.9161,30.91212 -50.34945,43.69885 -5.81815,2.9251 -17.55199,8.1968 -17.85512,8.02183 -0.0634,-0.0366 -23.49474,-9.43838 -52.06964,-20.89286 z"
         id="path210"
         inkscape:connector-curvature="0"
         transform="scale(0.26458333)" />
      <text
         xml:space="preserve"
         style="font-style:normal;font-weight:normal;font-size:3.88055563px;line-height:1.25;font-family:sans-serif;text-align:center;letter-spacing:0px;word-spacing:0px;text-anchor:middle;fill:#000000;fill-opacity:1;stroke:none;stroke-width:0.26458332"
         x="140.92075"
         y="103.68436"
         id="text89"><tspan
           sodipodi:role="line"
           id="tspan87"
           x="140.92075"
           y="103.68436"
           style="stroke-width:0.26458332">C</tspan></text>
    </g>
    <path
       style="fill:#b3b3b3;stroke:#000000;stroke-width:0;stroke-linecap:butt;stroke-linejoin:miter;stroke-miterlimit:4;stroke-dasharray:none;stroke-opacity:1"
       d="M 51.625,111.6875 V 114 c 14.750625,6.07709 30.357966,6.74326 45.59375,7.96875 L 97.25,119.28125 C 82.135193,118.19166 66.901829,117.3137 51.625,111.6875 Z"
       id="path3989"
       inkscape:connector-curvature="0"
       sodipodi:nodetypes="ccccc" />
    <path
       style="fill:#5de800;fill-opacity:1;stroke:#000000;stroke-width:0;stroke-linecap:butt;stroke-linejoin:miter;stroke-miterlimit:4;stroke-dasharray:none;stroke-opacity:1"
       d="m 98.375,119.3125 -0.0625,2.625 c 15.01485,-0.54677 30.32135,-2.4829 45.8047,-7.91155 l 0.0233,-2.41405 c -14.39967,4.54804 -28.93057,7.17562 -45.76554,7.7006 z"
       id="path3991"
       inkscape:connector-curvature="0"
       sodipodi:nodetypes="ccccc" />
    <path
       style="fill:#e29797;fill-opacity:1;stroke:#000000;stroke-width:0;stroke-linecap:butt;stroke-linejoin:miter;stroke-miterlimit:4;stroke-dasharray:none;stroke-opacity:1"
       d="M 164,93.114105 C 161.79834,103.2697 153.21063,107.03925 145.21632,111.4022 l 0.15868,1.9728 c 8.22875,-4.39697 17.75226,-10.00752 18.75,-18.25 z"
       id="path3993"
       inkscape:connector-curvature="0"
       sodipodi:nodetypes="ccccc" />
  </g>
  <g
     style="display:none"
     inkscape:label="Layer 2"
     id="layer2"
     inkscape:groupmode="layer">
    <g
       style="fill:#2affd5"
       transform="translate(56.828039,-23.99226)"
       id="g173">
      <path
         inkscape:connector-curvature="0"
         id="path12"
         d="M 153.64339,162.07806 A 66.145836,26.458332 0 0 1 87.497559,188.5364 66.145836,26.458332 0 0 1 21.351723,162.07806 66.145836,26.458332 0 0 1 87.497559,135.61973 66.145836,26.458332 0 0 1 153.64339,162.07806 Z"
         style="opacity:0.5;fill:#2affd5;fill-opacity:1;stroke:none;stroke-width:0.26458332;stroke-linejoin:miter;stroke-miterlimit:1;stroke-dasharray:none;stroke-opacity:0.99004977" />
      <g
         style="fill:#2affd5"
         id="g64"
         transform="translate(3.3333333e-6,60.85417)">
        <g
           style="fill:#2affd5"
           id="g59" />
        <g
           style="fill:#2affd5"
           id="g125">
          <path
             id="path80"
             d="M 40.733444,82.576712 68.58475,93.717235 m 65.67648,26.270595 -28.26987,-11.30795"
             style="fill:#2affd5;stroke:#000000;stroke-width:0.26458332px;stroke-linecap:butt;stroke-linejoin:miter;stroke-opacity:1"
             inkscape:connector-curvature="0"
             sodipodi:nodetypes="cccc" />
        </g>
      </g>
      <path
         style="fill:#2affd5;stroke:#000000;stroke-width:0.26458332px;stroke-linecap:butt;stroke-linejoin:miter;stroke-opacity:1"
         d="m 134.08858,143.35206 -27.99418,11.19767 m -37.498379,14.99935 c -9.339115,3.73565 -18.67823,7.47129 -28.017346,11.20694"
         id="path22"
         inkscape:connector-curvature="0"
         sodipodi:nodetypes="cccc" />
      <g
         style="fill:#2affd5"
         id="g147">
        <path
           inkscape:connector-curvature="0"
           style="fill:#2affd5;stroke:#000000;stroke-width:0.26458332px;stroke-linecap:butt;stroke-linejoin:miter;stroke-opacity:1"
           d="m 87.312499,151.47912 c -14.612536,0 -26.458336,4.73832 -26.458333,10.58334 5e-6,5.84501 11.845803,10.58333 26.458333,10.58333"
           id="path160" />
        <path
           inkscape:connector-curvature="0"
           style="fill:#2affd5;stroke:#000000;stroke-width:0.26458332px;stroke-linecap:butt;stroke-linejoin:miter;stroke-opacity:1"
           d="m 87.312499,172.64579 c 14.612531,0 26.458331,-4.73832 26.458331,-10.58333 0,-5.84502 -11.8458,-10.58334 -26.458331,-10.58334"
           id="path158" />
        <path
           style="fill:#2affd5;stroke:#000000;stroke-width:0.26458332px;stroke-linecap:butt;stroke-linejoin:miter;stroke-opacity:1"
           d="m 87.3125,135.60416 v 15.875 m 0,21.16666 v 15.875"
           id="path28"
           inkscape:connector-curvature="0"
           sodipodi:nodetypes="cccc" />
      </g>
      <path
         style="fill:#2affd5;stroke:#000000;stroke-width:0.26458332px;stroke-linecap:butt;stroke-linejoin:miter;stroke-opacity:1"
         d="m 153.45833,162.06249 h -39.64025 m -53.01116,0 H 21.166667 v 0 0"
         id="path30"
         inkscape:connector-curvature="0"
         sodipodi:nodetypes="cccccc" />
    </g>
  </g>
</svg>
